<svg width="7" height="11" viewBox="0 0 7 11" fill="none" xmlns="http://www.w3.org/2000/svg">
<path d="M5.54069 9.67825L5.53958 9.67704L2.56705 6.42731L1.94867 5.75126L2.56816 5.07623L5.5505 1.82649C5.55647 1.81999 5.57422 1.79329 5.57422 1.74365C5.57422 1.73655 5.57386 1.72992 5.57322 1.72375L1.9521 5.66953C1.94842 5.67354 1.94418 5.67942 1.94019 5.69014C1.93601 5.70134 1.93084 5.72151 1.93084 5.75237C1.93084 5.7872 1.94303 5.82165 1.96553 5.84988L5.56342 9.78084C5.56405 9.77471 5.56441 9.76813 5.56441 9.76109C5.56441 9.71145 5.54666 9.68476 5.54069 9.67825Z" fill="#555B64" stroke="#444950" stroke-width="2"/>
</svg>
