<svg width="7" height="11" viewBox="0 0 7 11" fill="none" xmlns="http://www.w3.org/2000/svg">
<path d="M1.96322 9.67825L1.96433 9.67704L4.93685 6.42731L5.55523 5.75126L4.93574 5.07623L1.95341 1.82649C1.94743 1.81999 1.92969 1.79329 1.92969 1.74365C1.92969 1.73655 1.93005 1.72992 1.93069 1.72375L5.5518 5.66953C5.55548 5.67354 5.55972 5.67942 5.56372 5.69014C5.5679 5.70134 5.57307 5.72151 5.57307 5.75237C5.57307 5.7872 5.56088 5.82165 5.53837 5.84988L1.94049 9.78084C1.93986 9.77471 1.9395 9.76813 1.9395 9.76109C1.9395 9.71145 1.95725 9.68476 1.96322 9.67825Z" fill="#555B64" stroke="#444950" stroke-width="2"/>
</svg>
